<?xml version="1.0" encoding="UTF-8"?><svg xmlns="http://www.w3.org/2000/svg" xmlns:xlink="http://www.w3.org/1999/xlink" contentScriptType="text/ecmascript" width="375pt" zoomAndPan="magnify" contentStyleType="text/css" viewBox="0 0 375 374.999991" height="374.999991pt" preserveAspectRatio="xMidYMid meet" version="1.2"><defs><clipPath xml:id="clip1" id="clip1"><path d="M 98 154 L 349.859375 154 L 349.859375 205 L 98 205 Z M 98 154 "/></clipPath><clipPath xml:id="clip2" id="clip2"><path d="M 85 81.308594 L 122 81.308594 L 122 161 L 85 161 Z M 85 81.308594 "/></clipPath><clipPath xml:id="clip3" id="clip3"><path d="M 25.109375 131 L 103 131 L 103 169 L 25.109375 169 Z M 25.109375 131 "/></clipPath><clipPath xml:id="clip4" id="clip4"><path d="M 210 198 L 281 198 L 281 293.558594 L 210 293.558594 Z M 210 198 "/></clipPath></defs><g xml:id="surface1" id="surface1"><rect x="0" width="375" y="0" height="374.999991" style="fill:rgb(100%,100%,100%);fill-opacity:1;stroke:none;"/><path style=" stroke:none;fill-rule:nonzero;fill:rgb(74.508667%,98.429871%,52.549744%);fill-opacity:1;" d="M 98.046875 183.144531 C 98.554688 183.144531 99.042969 183.242188 99.511719 183.4375 C 99.980469 183.632812 100.394531 183.90625 100.753906 184.265625 C 101.113281 184.625 101.386719 185.039062 101.582031 185.511719 C 101.777344 185.980469 101.875 186.46875 101.875 186.976562 C 101.875 187.484375 101.777344 187.972656 101.582031 188.441406 C 101.386719 188.914062 101.113281 189.328125 100.753906 189.6875 C 100.394531 190.046875 99.980469 190.324219 99.511719 190.515625 C 99.042969 190.710938 98.554688 190.808594 98.046875 190.808594 C 97.539062 190.808594 97.050781 190.710938 96.578125 190.515625 C 96.109375 190.324219 95.695312 190.046875 95.335938 189.6875 C 94.980469 189.328125 94.703125 188.914062 94.507812 188.441406 C 94.3125 187.972656 94.214844 187.484375 94.214844 186.976562 C 94.214844 186.46875 94.3125 185.980469 94.507812 185.511719 C 94.703125 185.039062 94.980469 184.625 95.335938 184.265625 C 95.695312 183.90625 96.109375 183.632812 96.578125 183.4375 C 97.050781 183.242188 97.539062 183.144531 98.046875 183.144531 Z M 98.046875 183.144531 "/><path style=" stroke:none;fill-rule:nonzero;fill:rgb(74.508667%,98.429871%,52.549744%);fill-opacity:1;" d="M 102.605469 186.976562 C 102.605469 187.523438 102.605469 187.890625 102.421875 188.4375 C 102.058594 189.53125 101.328125 190.445312 100.234375 190.992188 C 99.140625 191.539062 97.863281 191.539062 96.769531 191.171875 C 94.398438 190.445312 93.121094 187.890625 94.035156 185.515625 C 94.761719 183.144531 97.316406 181.867188 99.6875 182.78125 C 101.328125 183.511719 102.605469 185.152344 102.605469 186.976562 Z M 94.945312 186.976562 C 94.945312 188.253906 95.855469 189.53125 97.132812 189.894531 C 97.863281 190.078125 98.773438 190.078125 99.503906 189.714844 C 100.234375 189.347656 100.78125 188.617188 101.144531 187.890625 C 101.691406 186.246094 100.78125 184.421875 99.140625 184.058594 C 97.5 183.511719 95.675781 184.421875 95.308594 186.066406 C 95.128906 186.429688 94.945312 186.792969 94.945312 186.976562 Z M 94.945312 186.976562 "/><path style=" stroke:none;fill-rule:nonzero;fill:rgb(74.508667%,98.429871%,52.549744%);fill-opacity:1;" d="M 237.171875 177.671875 C 237.496094 177.671875 237.816406 177.703125 238.132812 177.765625 C 238.449219 177.828125 238.757812 177.921875 239.054688 178.046875 C 239.355469 178.167969 239.636719 178.320312 239.90625 178.5 C 240.175781 178.679688 240.425781 178.886719 240.652344 179.113281 C 240.882812 179.34375 241.085938 179.589844 241.265625 179.859375 C 241.445312 180.128906 241.597656 180.414062 241.71875 180.710938 C 241.84375 181.011719 241.9375 181.320312 242 181.636719 C 242.0625 181.953125 242.09375 182.273438 242.09375 182.597656 C 242.09375 182.921875 242.0625 183.242188 242 183.558594 C 241.9375 183.875 241.84375 184.183594 241.71875 184.484375 C 241.597656 184.78125 241.445312 185.066406 241.265625 185.335938 C 241.085938 185.605469 240.882812 185.851562 240.652344 186.082031 C 240.425781 186.308594 240.175781 186.515625 239.90625 186.695312 C 239.636719 186.875 239.355469 187.023438 239.054688 187.148438 C 238.757812 187.273438 238.449219 187.367188 238.132812 187.429688 C 237.816406 187.492188 237.496094 187.523438 237.171875 187.523438 C 236.847656 187.523438 236.527344 187.492188 236.210938 187.429688 C 235.894531 187.367188 235.585938 187.273438 235.289062 187.148438 C 234.988281 187.027344 234.707031 186.875 234.4375 186.695312 C 234.167969 186.515625 233.917969 186.308594 233.691406 186.082031 C 233.460938 185.851562 233.257812 185.605469 233.078125 185.335938 C 232.898438 185.066406 232.746094 184.78125 232.625 184.484375 C 232.5 184.183594 232.40625 183.875 232.34375 183.558594 C 232.28125 183.242188 232.25 182.921875 232.25 182.597656 C 232.25 182.273438 232.28125 181.953125 232.34375 181.636719 C 232.40625 181.320312 232.5 181.011719 232.625 180.710938 C 232.746094 180.414062 232.898438 180.128906 233.078125 179.859375 C 233.257812 179.589844 233.460938 179.34375 233.691406 179.113281 C 233.917969 178.886719 234.167969 178.679688 234.4375 178.5 C 234.707031 178.320312 234.988281 178.167969 235.289062 178.046875 C 235.585938 177.921875 235.894531 177.828125 236.210938 177.765625 C 236.527344 177.703125 236.847656 177.671875 237.171875 177.671875 Z M 237.171875 177.671875 "/><path style=" stroke:none;fill-rule:nonzero;fill:rgb(74.508667%,98.429871%,52.549744%);fill-opacity:1;" d="M 242.824219 182.597656 C 242.824219 182.960938 242.824219 183.328125 242.640625 183.691406 C 242.277344 185.152344 241.546875 186.429688 240.273438 187.339844 C 238.996094 188.253906 237.535156 188.617188 235.894531 188.253906 C 232.796875 187.707031 230.609375 184.789062 231.335938 181.503906 C 231.703125 180.042969 232.429688 178.765625 233.707031 177.851562 C 234.984375 176.941406 236.441406 176.578125 238.082031 176.941406 C 240.820312 177.304688 242.824219 179.859375 242.824219 182.597656 Z M 233.160156 182.597656 C 233.160156 184.605469 234.617188 186.246094 236.441406 186.429688 C 237.535156 186.613281 238.628906 186.429688 239.359375 185.882812 C 240.273438 185.335938 240.820312 184.421875 241 183.328125 C 241.367188 181.136719 239.90625 179.128906 237.71875 178.765625 C 236.625 178.582031 235.53125 178.765625 234.800781 179.3125 C 234.070312 179.859375 233.34375 180.773438 233.160156 181.867188 C 233.160156 182.050781 233.160156 182.234375 233.160156 182.597656 Z M 233.160156 182.597656 "/><path style=" stroke:none;fill-rule:nonzero;fill:rgb(74.508667%,98.429871%,52.549744%);fill-opacity:1;" d="M 218.390625 165.628906 C 218.714844 165.628906 219.035156 165.660156 219.351562 165.722656 C 219.667969 165.785156 219.976562 165.878906 220.273438 166.003906 C 220.574219 166.128906 220.855469 166.277344 221.125 166.457031 C 221.394531 166.636719 221.644531 166.84375 221.871094 167.070312 C 222.101562 167.300781 222.304688 167.550781 222.484375 167.816406 C 222.664062 168.085938 222.816406 168.371094 222.9375 168.667969 C 223.0625 168.96875 223.15625 169.277344 223.21875 169.59375 C 223.28125 169.910156 223.3125 170.230469 223.3125 170.554688 C 223.3125 170.878906 223.28125 171.199219 223.21875 171.515625 C 223.15625 171.832031 223.0625 172.140625 222.9375 172.441406 C 222.816406 172.738281 222.664062 173.023438 222.484375 173.292969 C 222.304688 173.5625 222.101562 173.808594 221.871094 174.039062 C 221.644531 174.265625 221.394531 174.472656 221.125 174.652344 C 220.855469 174.832031 220.574219 174.984375 220.273438 175.105469 C 219.976562 175.230469 219.667969 175.324219 219.351562 175.386719 C 219.035156 175.449219 218.714844 175.480469 218.390625 175.480469 C 218.066406 175.480469 217.746094 175.449219 217.429688 175.386719 C 217.113281 175.324219 216.804688 175.230469 216.507812 175.105469 C 216.207031 174.984375 215.925781 174.832031 215.65625 174.652344 C 215.386719 174.472656 215.136719 174.265625 214.910156 174.039062 C 214.679688 173.808594 214.476562 173.5625 214.296875 173.292969 C 214.117188 173.023438 213.964844 172.738281 213.84375 172.441406 C 213.71875 172.140625 213.625 171.832031 213.5625 171.515625 C 213.5 171.199219 213.46875 170.878906 213.46875 170.554688 C 213.46875 170.230469 213.5 169.910156 213.5625 169.59375 C 213.625 169.277344 213.71875 168.96875 213.84375 168.667969 C 213.964844 168.371094 214.117188 168.085938 214.296875 167.816406 C 214.476562 167.550781 214.679688 167.300781 214.910156 167.070312 C 215.136719 166.84375 215.386719 166.636719 215.65625 166.457031 C 215.925781 166.277344 216.207031 166.128906 216.507812 166.003906 C 216.804688 165.878906 217.113281 165.785156 217.429688 165.722656 C 217.746094 165.660156 218.066406 165.628906 218.390625 165.628906 Z M 218.390625 165.628906 "/><path style=" stroke:none;fill-rule:nonzero;fill:rgb(74.508667%,98.429871%,52.549744%);fill-opacity:1;" d="M 224.226562 170.554688 C 224.226562 170.917969 224.226562 171.285156 224.042969 171.648438 C 223.679688 173.109375 222.949219 174.386719 221.671875 175.300781 C 220.394531 176.210938 218.9375 176.578125 217.296875 176.210938 C 214.195312 175.664062 212.007812 172.746094 212.738281 169.460938 C 213.101562 168 213.832031 166.722656 215.109375 165.8125 C 216.386719 164.898438 217.84375 164.535156 219.484375 164.898438 C 222.21875 165.261719 224.226562 167.816406 224.226562 170.554688 Z M 214.378906 170.554688 C 214.378906 172.5625 215.835938 174.203125 217.660156 174.386719 C 218.753906 174.570312 219.847656 174.386719 220.578125 173.839844 C 221.492188 173.292969 222.039062 172.378906 222.21875 171.285156 C 222.585938 169.09375 221.125 167.089844 218.9375 166.722656 C 217.84375 166.539062 216.75 166.722656 216.019531 167.269531 C 215.289062 167.816406 214.5625 168.730469 214.378906 169.824219 C 214.378906 170.007812 214.378906 170.191406 214.378906 170.554688 Z M 214.378906 170.554688 "/><g clip-rule="nonzero" clip-path="url(#clip1)"><path style=" stroke:none;fill-rule:nonzero;fill:rgb(32.939148%,46.669006%,36.859131%);fill-opacity:1;" d="M 349.859375 197.925781 C 349.859375 199.933594 348.21875 201.574219 346.210938 201.574219 C 323.785156 201.574219 302.816406 202.488281 282.574219 203.214844 C 207.269531 206.316406 148.007812 208.691406 99.6875 160.335938 C 98.226562 158.878906 98.226562 156.6875 99.6875 155.226562 C 101.144531 153.769531 103.332031 153.769531 104.792969 155.226562 C 150.742188 201.210938 205.808594 199.019531 282.210938 195.917969 C 302.449219 195.003906 323.417969 194.277344 346.210938 194.277344 C 348.21875 194.277344 349.859375 195.917969 349.859375 197.925781 Z M 349.859375 197.925781 "/></g><path style=" stroke:none;fill-rule:nonzero;fill:rgb(32.939148%,46.669006%,36.859131%);fill-opacity:1;" d="M 170.253906 104.503906 C 167.699219 108.515625 135.0625 161.613281 185.203125 197.925781 L 185.203125 197.558594 L 185.203125 197.742188 C 221.308594 147.5625 174.265625 107.421875 170.253906 104.503906 L 170.253906 104.320312 C 170.070312 104.320312 170.253906 104.320312 170.253906 104.503906 C 170.253906 104.320312 170.253906 104.320312 170.253906 104.320312 Z M 170.253906 104.503906 "/><path style=" stroke:none;fill-rule:nonzero;fill:rgb(32.939148%,46.669006%,36.859131%);fill-opacity:1;" d="M 200.519531 159.242188 C 200.519531 172.5625 195.78125 185.882812 186.664062 198.65625 C 186.480469 199.019531 186.296875 199.203125 185.933594 199.382812 C 185.386719 199.75 184.476562 199.75 183.929688 199.382812 C 165.148438 185.699219 155.484375 168.183594 155.484375 147.382812 C 155.484375 126.214844 165.511719 108.515625 168.246094 104.136719 C 168.246094 104.136719 168.246094 104.136719 168.246094 103.953125 C 168.429688 103.042969 169.160156 102.496094 170.070312 102.496094 C 170.800781 102.496094 171.347656 102.859375 171.710938 103.589844 C 175.90625 106.875 200.519531 128.222656 200.519531 159.242188 Z M 184.65625 195.371094 C 192.863281 183.511719 197.058594 171.46875 197.058594 159.242188 C 197.058594 131.871094 176.632812 112.164062 170.800781 107.238281 C 167.515625 112.894531 159.3125 128.769531 159.3125 147.382812 C 159.128906 166.359375 167.699219 182.597656 184.65625 195.371094 Z M 184.65625 195.371094 "/><path style=" stroke:none;fill-rule:nonzero;fill:rgb(32.939148%,46.669006%,36.859131%);fill-opacity:1;" d="M 104.425781 83.335938 C 101.875 86.074219 68.324219 122.929688 102.238281 159.058594 L 102.238281 158.695312 L 102.238281 158.878906 C 138.34375 124.757812 107.34375 86.074219 104.425781 83.335938 C 104.425781 83.152344 104.609375 83.152344 104.425781 83.335938 C 104.425781 83.152344 104.425781 83.152344 104.425781 83.335938 Z M 104.425781 83.335938 "/><g clip-rule="nonzero" clip-path="url(#clip2)"><path style=" stroke:none;fill-rule:nonzero;fill:rgb(32.939148%,46.669006%,36.859131%);fill-opacity:1;" d="M 121.019531 122.019531 C 121.019531 135.886719 115.183594 148.660156 103.515625 159.605469 C 103.332031 159.972656 103.152344 160.15625 102.785156 160.335938 C 102.238281 160.519531 101.691406 160.335938 101.144531 159.972656 C 90.75 149.023438 85.644531 136.980469 85.644531 124.027344 C 85.644531 102.679688 100.050781 85.707031 102.96875 82.605469 C 103.152344 82.058594 103.699219 81.511719 104.425781 81.511719 C 105.15625 81.511719 105.703125 81.875 105.886719 82.605469 C 108.257812 85.34375 121.019531 101.402344 121.019531 122.019531 Z M 102.421875 156.871094 C 112.996094 146.46875 118.285156 134.792969 118.285156 122.019531 C 118.285156 103.953125 107.890625 89.539062 104.609375 85.527344 C 100.597656 90.085938 88.746094 105.414062 88.746094 124.027344 C 88.746094 135.703125 93.304688 146.835938 102.421875 156.871094 Z M 102.421875 156.871094 "/></g><path style=" stroke:none;fill-rule:nonzero;fill:rgb(32.939148%,46.669006%,36.859131%);fill-opacity:1;" d="M 27.113281 140.628906 C 29.300781 143.734375 58.476562 184.058594 100.78125 158.148438 L 100.597656 158.148438 L 100.78125 158.148438 C 74.523438 115.816406 30.578125 138.441406 27.113281 140.628906 C 26.933594 140.449219 26.933594 140.449219 27.113281 140.628906 C 26.933594 140.628906 26.933594 140.449219 27.113281 140.628906 Z M 27.113281 140.628906 "/><g clip-rule="nonzero" clip-path="url(#clip3)"><path style=" stroke:none;fill-rule:nonzero;fill:rgb(32.939148%,46.669006%,36.859131%);fill-opacity:1;" d="M 102.238281 158.148438 C 102.238281 158.695312 102.058594 159.058594 101.511719 159.425781 C 83.640625 170.371094 65.222656 171.101562 48.082031 161.613281 C 35.867188 154.679688 28.027344 144.644531 26.019531 141.90625 C 25.839844 141.90625 25.839844 141.726562 25.839844 141.726562 C 25.65625 141.542969 25.472656 141.359375 25.472656 141.179688 C 25.472656 141.179688 25.292969 141.179688 25.292969 141.179688 C 25.292969 140.996094 25.109375 140.996094 25.109375 140.8125 C 25.109375 140.628906 25.292969 140.449219 25.292969 140.449219 L 25.109375 140.449219 C 25.109375 140.449219 24.925781 140.449219 24.925781 140.449219 C 24.925781 140.449219 25.109375 140.449219 25.109375 140.449219 C 25.109375 140.265625 25.292969 140.082031 25.472656 139.902344 C 25.472656 139.902344 25.65625 139.71875 25.65625 139.71875 C 25.839844 139.535156 26.019531 139.351562 26.203125 139.351562 C 26.386719 139.351562 26.386719 139.351562 26.566406 139.351562 C 29.851562 137.527344 48.628906 128.039062 69.054688 132.785156 C 82.546875 135.523438 93.304688 143.734375 101.691406 157.050781 C 102.058594 157.234375 102.238281 157.601562 102.238281 157.964844 C 102.238281 157.964844 102.238281 157.964844 102.238281 158.148438 Z M 29.300781 140.996094 C 35.136719 148.839844 61.578125 179.3125 98.773438 157.601562 C 90.933594 145.558594 80.90625 137.894531 68.6875 135.15625 C 50.636719 131.140625 34.042969 138.625 29.300781 140.996094 Z M 29.300781 140.996094 "/></g><path style=" stroke:none;fill-rule:nonzero;fill:rgb(32.939148%,46.669006%,36.859131%);fill-opacity:1;" d="M 95.855469 268.175781 C 100.414062 267.078125 160.769531 251.933594 150.378906 190.808594 L 150.195312 191.171875 L 150.378906 190.992188 C 89.109375 201.574219 94.945312 263.246094 95.855469 268.175781 C 95.675781 268.355469 95.675781 268.355469 95.855469 268.175781 C 95.855469 268.355469 95.675781 268.355469 95.855469 268.175781 Z M 95.855469 268.175781 "/><path style=" stroke:none;fill-rule:nonzero;fill:rgb(32.939148%,46.669006%,36.859131%);fill-opacity:1;" d="M 152.746094 204.675781 C 152.746094 253.757812 104.425781 267.992188 96.585938 270 C 96.222656 270.179688 96.039062 270.363281 95.492188 270.363281 C 95.308594 270.363281 95.308594 270.363281 95.128906 270.363281 C 94.945312 270.363281 94.761719 270.179688 94.582031 270.179688 C 94.398438 270 94.398438 270 94.214844 269.816406 C 94.214844 269.632812 94.035156 269.632812 94.035156 269.449219 C 94.035156 269.269531 93.851562 269.085938 93.851562 268.902344 C 93.851562 268.722656 93.851562 268.355469 93.851562 268.175781 C 93.667969 266.714844 93.304688 263.613281 93.304688 259.597656 C 93.304688 241.535156 98.773438 198.472656 149.464844 189.53125 C 149.832031 189.347656 150.195312 189.347656 150.558594 189.347656 C 151.289062 189.53125 151.652344 190.078125 151.652344 190.808594 C 152.566406 195.371094 152.746094 200.113281 152.746094 204.675781 Z M 97.132812 265.984375 C 107.710938 263.066406 149.101562 248.648438 149.101562 204.675781 C 149.101562 201.027344 149.101562 197.011719 148.554688 193.179688 C 101.875 202.304688 96.769531 242.445312 96.769531 259.414062 C 96.769531 262.152344 96.953125 264.523438 97.132812 265.984375 Z M 97.132812 265.984375 "/><path style=" stroke:none;fill-rule:nonzero;fill:rgb(32.939148%,46.669006%,36.859131%);fill-opacity:1;" d="M 213.648438 290.980469 C 218.9375 289.703125 289.320312 272.003906 277.105469 200.84375 L 276.921875 201.210938 L 277.105469 201.027344 C 205.808594 213.433594 212.375 285.144531 213.648438 290.980469 L 213.46875 291.164062 C 213.46875 291.164062 213.46875 291.164062 213.648438 290.980469 C 213.648438 291.164062 213.46875 291.164062 213.46875 291.164062 Z M 213.648438 290.980469 "/><g clip-rule="nonzero" clip-path="url(#clip4)"><path style=" stroke:none;fill-rule:nonzero;fill:rgb(32.939148%,46.669006%,36.859131%);fill-opacity:1;" d="M 280.386719 216.902344 C 280.386719 274.011719 224.042969 290.433594 214.742188 292.808594 C 214.5625 292.988281 214.378906 292.988281 214.195312 292.988281 C 213.832031 293.355469 213.648438 293.355469 213.285156 293.355469 C 213.101562 293.355469 212.921875 293.355469 212.738281 293.171875 C 212.554688 293.171875 212.375 292.988281 212.191406 292.808594 C 212.007812 292.625 211.644531 292.625 211.460938 292.441406 C 211.277344 292.257812 211.097656 292.078125 211.097656 292.078125 C 211.097656 291.894531 211.097656 291.710938 211.097656 291.53125 C 211.097656 291.164062 211.097656 290.980469 211.277344 290.617188 C 211.097656 288.976562 210.730469 285.324219 210.730469 280.582031 C 210.730469 259.597656 217.113281 209.601562 275.828125 199.019531 C 276.191406 198.835938 276.921875 198.65625 277.285156 198.835938 C 278.199219 199.019531 278.746094 199.75 278.929688 200.480469 C 280.023438 206.136719 280.386719 211.792969 280.386719 216.902344 Z M 215.65625 288.425781 C 228.054688 284.960938 276.738281 268.355469 276.738281 217.082031 C 276.738281 212.703125 276.191406 208.324219 275.464844 203.582031 C 221.125 214.164062 215.289062 260.875 215.289062 280.765625 C 215.289062 284.046875 215.472656 286.601562 215.65625 288.425781 Z M 215.65625 288.425781 "/></g><path style=" stroke:none;fill-rule:nonzero;fill:rgb(32.939148%,46.669006%,36.859131%);fill-opacity:1;" d="M 244.648438 108.152344 C 249.9375 109.429688 320.320312 127.128906 308.101562 198.289062 L 307.921875 197.925781 L 308.101562 198.105469 C 236.808594 185.699219 243.371094 113.808594 244.648438 108.152344 L 244.464844 107.96875 C 244.464844 107.785156 244.464844 107.96875 244.648438 108.152344 C 244.648438 107.96875 244.464844 107.96875 244.464844 107.96875 Z M 244.648438 108.152344 "/><path style=" stroke:none;fill-rule:nonzero;fill:rgb(32.939148%,46.669006%,36.859131%);fill-opacity:1;" d="M 311.566406 182.050781 C 311.566406 187.339844 311.019531 192.816406 310.109375 198.472656 C 309.925781 199.382812 309.378906 199.933594 308.46875 200.113281 C 307.921875 200.296875 307.375 200.113281 307.007812 199.933594 C 248.292969 189.347656 241.914062 139.351562 241.914062 118.371094 C 241.914062 113.625 242.277344 109.976562 242.460938 108.335938 C 242.277344 107.96875 242.460938 107.421875 242.460938 107.058594 C 242.824219 106.328125 243.371094 105.78125 244.101562 105.78125 C 244.464844 105.78125 244.832031 105.78125 245.195312 105.960938 C 245.378906 105.960938 245.558594 106.144531 245.742188 106.144531 C 255.042969 108.515625 311.566406 125.121094 311.566406 182.050781 Z M 306.277344 195.550781 C 307.007812 190.992188 307.375 186.429688 307.375 182.050781 C 307.375 130.777344 258.871094 114.171875 246.472656 110.707031 C 246.289062 112.53125 246.105469 115.085938 246.105469 118.371094 C 246.105469 138.257812 251.941406 184.96875 306.277344 195.550781 Z M 306.277344 195.550781 "/><path style=" stroke:none;fill-rule:nonzero;fill:rgb(74.508667%,98.429871%,52.549744%);fill-opacity:1;" d="M 65.40625 182.78125 C 61.757812 182.597656 57.019531 183.691406 57.019531 187.339844 C 57.019531 190.992188 61.757812 192.269531 65.40625 192.085938 C 71.789062 191.722656 78.351562 190.261719 84.371094 187.707031 L 86.558594 186.0625 C 79.445312 184.238281 72.515625 183.144531 65.40625 182.78125 Z M 65.40625 182.78125 "/><path style=" stroke:none;fill-rule:nonzero;fill:rgb(74.508667%,98.429871%,52.549744%);fill-opacity:1;" d="M 65.222656 179.496094 C 61.578125 179.496094 56.289062 180.40625 54.285156 184.421875 C 52.460938 188.070312 54.648438 192.085938 58.113281 193.910156 C 63.035156 196.464844 69.601562 195.003906 74.707031 193.910156 C 79.8125 192.816406 84.550781 191.539062 88.5625 188.253906 C 90.386719 186.792969 89.292969 183.511719 87.105469 182.960938 C 79.992188 181.136719 72.699219 180.042969 65.222656 179.496094 C 61.210938 179.3125 61.210938 185.699219 65.40625 185.882812 C 72.152344 186.246094 78.898438 187.339844 85.644531 188.800781 C 85.097656 186.976562 84.734375 185.152344 84.1875 183.511719 C 81.085938 185.882812 76.894531 186.792969 73.246094 187.523438 C 70.695312 188.070312 66.683594 189.347656 64.128906 188.617188 C 62.125 188.984375 61.394531 188.070312 62.125 186.0625 C 63.21875 185.882812 63.582031 185.699219 65.40625 185.699219 C 68.871094 186.066406 68.871094 179.496094 65.222656 179.496094 Z M 65.222656 179.496094 "/><path style=" stroke:none;fill-rule:nonzero;fill:rgb(74.508667%,98.429871%,52.549744%);fill-opacity:1;" d="M 82.363281 211.425781 C 80.90625 213.800781 78.351562 216.355469 75.980469 215.078125 C 73.613281 213.617188 74.886719 209.96875 76.527344 207.59375 C 79.445312 203.582031 83.09375 200.113281 87.105469 197.195312 L 89.109375 196.464844 C 87.289062 201.757812 85.097656 206.683594 82.363281 211.425781 Z M 82.363281 211.425781 "/><path style=" stroke:none;fill-rule:nonzero;fill:rgb(74.508667%,98.429871%,52.549744%);fill-opacity:1;" d="M 80.359375 210.148438 C 79.8125 211.0625 79.265625 212.339844 77.988281 211.972656 C 76.527344 211.609375 77.625 210.515625 78.171875 209.601562 C 79.265625 207.777344 80.90625 206.136719 82.363281 204.492188 C 84.550781 202.304688 86.921875 199.75 89.839844 198.835938 C 88.746094 197.742188 87.835938 196.828125 86.738281 195.734375 C 85.097656 200.84375 82.910156 205.589844 80.359375 210.148438 C 78.71875 212.886719 83.09375 215.441406 84.550781 212.703125 C 87.289062 207.777344 89.65625 202.667969 91.480469 197.195312 C 92.027344 195.371094 90.203125 193.546875 88.382812 194.09375 C 85.28125 195.1875 82.910156 197.011719 80.539062 199.382812 C 77.441406 202.304688 73.792969 205.953125 72.515625 209.96875 C 71.605469 213.070312 72.515625 216.355469 75.800781 217.449219 C 79.628906 218.726562 82.730469 215.441406 84.550781 212.523438 C 86.191406 209.96875 82 207.59375 80.359375 210.148438 Z M 80.359375 210.148438 "/><path style=" stroke:none;fill-rule:nonzero;fill:rgb(74.508667%,98.429871%,52.549744%);fill-opacity:1;" d="M 214.195312 138.625 C 212.375 135.15625 211.460938 129.863281 214.925781 128.039062 C 218.574219 126.398438 222.039062 130.59375 223.496094 134.425781 C 226.050781 141.179688 227.324219 148.292969 227.691406 155.410156 L 226.960938 158.328125 C 221.855469 152.125 217.660156 145.558594 214.195312 138.625 Z M 214.195312 138.625 "/><path style=" stroke:none;fill-rule:nonzero;fill:rgb(74.508667%,98.429871%,52.549744%);fill-opacity:1;" d="M 217.296875 136.796875 C 216.203125 134.425781 216.019531 128.953125 218.9375 133.515625 C 220.761719 136.070312 221.492188 139.71875 222.21875 142.636719 C 223.3125 147.382812 224.589844 152.671875 223.3125 157.417969 C 225.320312 156.871094 227.324219 156.324219 229.148438 155.773438 C 224.589844 149.9375 220.578125 143.550781 217.296875 136.796875 C 215.289062 132.785156 209.089844 136.25 211.277344 140.449219 C 215.109375 147.746094 219.484375 154.496094 224.40625 160.882812 C 226.050781 163.074219 229.695312 161.613281 230.242188 159.242188 C 231.519531 154.132812 230.789062 149.023438 229.695312 143.734375 C 228.601562 137.894531 226.960938 130.414062 222.21875 126.398438 C 218.9375 123.660156 214.195312 123.113281 211.097656 126.761719 C 207.632812 130.59375 209.273438 136.25 211.277344 140.449219 C 212.921875 144.460938 219.121094 140.996094 217.296875 136.796875 Z M 217.296875 136.796875 "/><path style=" stroke:none;fill-rule:nonzero;fill:rgb(74.508667%,98.429871%,52.549744%);fill-opacity:1;" d="M 203.984375 222.191406 C 201.980469 223.46875 185.203125 236.789062 182.835938 257.042969 C 180.464844 277.296875 134.148438 249.378906 202.890625 222.375 "/><path style=" stroke:none;fill-rule:nonzero;fill:rgb(74.508667%,98.429871%,52.549744%);fill-opacity:1;" d="M 202.710938 220.183594 C 194.867188 225.292969 188.488281 234.054688 184.65625 242.445312 C 183.199219 245.546875 182.105469 248.832031 181.375 252.300781 C 180.828125 254.304688 181.011719 257.226562 179.917969 259.050781 C 178.824219 261.058594 177 261.789062 174.8125 261.605469 C 168.976562 260.875 166.605469 254.488281 168.429688 249.5625 C 173.167969 236.425781 191.949219 229.125 203.621094 224.566406 C 206.355469 223.46875 205.078125 219.089844 202.34375 220.183594 C 189.214844 225.476562 170.070312 232.957031 164.417969 247.554688 C 161.863281 253.941406 163.6875 261.238281 169.886719 264.707031 C 174.992188 267.445312 181.558594 266.53125 184.292969 260.875 C 185.570312 257.957031 185.570312 254.671875 186.296875 251.570312 C 187.574219 246.824219 189.582031 242.445312 192.132812 238.433594 C 195.414062 233.324219 199.972656 227.667969 205.078125 224.199219 C 207.632812 222.558594 205.261719 218.542969 202.710938 220.183594 Z M 202.710938 220.183594 "/><path style=" stroke:none;fill-rule:nonzero;fill:rgb(74.508667%,98.429871%,52.549744%);fill-opacity:1;" d="M 142.902344 157.601562 C 142.355469 155.773438 139.617188 139.902344 148.371094 127.128906 C 157.125 114.355469 116.828125 106.875 142.355469 156.871094 "/><path style=" stroke:none;fill-rule:nonzero;fill:rgb(74.508667%,98.429871%,52.549744%);fill-opacity:1;" d="M 144.542969 157.050781 C 142.902344 151.03125 143.628906 143.734375 145.273438 137.894531 C 146.546875 133.148438 151.105469 128.769531 151.472656 123.84375 C 151.835938 119.464844 147.824219 116.363281 143.628906 115.816406 C 138.34375 115.269531 134.148438 118.917969 132.691406 123.84375 C 129.40625 134.972656 135.972656 147.929688 140.894531 157.417969 C 141.988281 159.425781 144.90625 157.601562 143.996094 155.59375 C 139.800781 147.199219 133.417969 134.972656 136.15625 124.9375 C 137.25 120.925781 140.714844 117.824219 145.089844 119.464844 C 151.289062 121.835938 145.820312 127.492188 144.175781 130.960938 C 140.53125 138.804688 139.070312 149.207031 141.441406 157.78125 C 141.808594 160.15625 145.089844 159.242188 144.542969 157.050781 Z M 144.542969 157.050781 "/></g></svg>